<?xml version="1.0" encoding="UTF-8"?>
<svg id="Layer_2" data-name="Layer 2" xmlns="http://www.w3.org/2000/svg" xmlns:xlink="http://www.w3.org/1999/xlink" viewBox="0 0 637.4 237.1">
  <defs>
    <style>
      .cls-1 {
        fill: url(#radial-gradient);
      }

      .cls-2 {
        fill: url(#radial-gradient-2);
      }
    </style>
    <radialGradient id="radial-gradient" cx="188.98" cy="118.55" fx="188.98" fy="118.55" r="157.75" gradientUnits="userSpaceOnUse">
      <stop offset="0" stop-color="#aaed22"/>
      <stop offset="1" stop-color="#9c0"/>
    </radialGradient>
    <radialGradient id="radial-gradient-2" cx="458.33" cy="118.55" fx="458.33" fy="118.55" r="150.94" xlink:href="#radial-gradient"/>
  </defs>
  <g id="Layer_1-2" data-name="Layer 1">
    <path class="cls-1" d="M1.74,233.95H69.41c.78,0,1.47-.53,1.68-1.28L107.36,97.67c.41-1.53,2.48-1.75,3.21-.35l59.84,114.61s12.59,25.18,25.18,25.18h31.47c16.79,0,29.38-27.28,29.38-27.28l58.88-113.69c.72-1.38,2.75-1.19,3.2,.3l10.29,34.3c.42,1.41,2.3,1.69,3.11,.45l45.76-69.64c.29-.44,.36-.98,.2-1.48l-12.3-38.94c-.03-.1-.06-.18-.11-.27-.9-1.74-11.28-20.86-29.31-20.86h-18.88c-16.26,0-26.62,21.66-27.25,23.01-.02,.04-.04,.09-.07,.13-1.48,2.6-48.23,84.68-74,131.49-.66,1.19-2.36,1.2-3.03,0L147.33,37.77C138.94,23.08,128.45,0,107.46,0c0,0,4.2,0-16.79,0s-29.38,27.28-29.38,27.28L.07,231.72c-.33,1.11,.5,2.23,1.66,2.23Z"/>
    <path class="cls-2" d="M453.09,2.37c17.83,0-1.05,0,12.59,0,19.83,0,33.57,21.49,33.57,21.49l137.46,204.67c1.78,2.65-.12,6.2-3.31,6.2h-187.66c-24.44,0-45.09-10.13-53.09-14.65-1.97-1.11-2.64-3.63-1.45-5.56l29.31-47.63c1.15-1.87,3.61-2.47,5.48-1.31,4.94,3.07,14.44,8.31,21.85,8.31h63.99c3.16,0,5.06-3.51,3.34-6.16l-51.41-78.95c-1.57-2.41-5.1-2.41-6.67,0l-94.1,144.15c-.74,1.13-1.99,1.81-3.34,1.81h-76.41c-3.19,0-5.08-3.55-3.31-6.2L416.37,24.91s15.95-22.54,36.72-22.54Z"/>
  </g>
</svg>